<?xml version="1.0" encoding="iso-8859-1"?>
<!-- Generator: Adobe Illustrator 19.0.0, SVG Export Plug-In . SVG Version: 6.00 Build 0)  -->
<svg version="1.1" id="Capa_1" xmlns="http://www.w3.org/2000/svg" xmlns:xlink="http://www.w3.org/1999/xlink" x="0px" y="0px"
	 viewBox="0 0 512.001 512.001" style="enable-background:new 0 0 512.001 512.001;" xml:space="preserve">
<path style="fill:#51FAFF;" d="M431.692,169.815c-22.944-8.649-49.498-15.401-78.326-20.062
	c-4.566-25.409-10.799-48.876-18.553-69.445C315.291,28.52,287.486,0,256.518,0s-58.774,28.52-78.296,80.309
	c-7.736,20.522-13.958,43.93-18.521,69.272c-29.241,4.666-56.166,11.48-79.393,20.234C28.52,189.338,0,217.144,0,248.111
	s28.52,58.773,80.309,78.296c22.523,8.49,48.524,15.154,76.742,19.805c4.669,31.596,11.812,60.65,21.171,85.482
	c19.521,51.787,47.329,80.308,78.296,80.308s58.773-28.52,78.295-80.308c9.377-24.875,16.529-53.991,21.199-85.654
	c27.81-4.642,53.44-11.248,75.681-19.632c51.788-19.522,80.309-47.329,80.309-78.296S483.48,189.338,431.692,169.815z
	 M206.354,90.912c14.362-38.101,33.115-60.848,50.164-60.848c17.049,0,35.801,22.747,50.164,60.848
	c6.167,16.36,11.299,34.778,15.312,54.688c-21.257-2.213-43.406-3.356-65.994-3.356c-22.214,0-44.002,1.109-64.937,3.251
	C195.073,125.626,200.198,107.243,206.354,90.912z M332.319,256c0,21.83-1.11,43.175-3.254,63.582
	c-23.239,2.85-47.828,4.332-73.065,4.332c-24.858,0-49.086-1.441-72.017-4.208c-2.152-20.445-3.268-41.831-3.268-63.706
	c0-27.656,1.78-54.536,5.19-79.711c22.361-2.618,45.93-3.98,70.095-3.98c24.545,0,48.473,1.406,71.146,4.105
	C330.545,201.553,332.319,228.39,332.319,256z M90.912,298.275c-38.101-14.362-60.848-33.115-60.848-50.164
	s22.747-35.802,60.848-50.164c18.917-7.13,40.584-12.876,64.128-17.109c-2.885,24.027-4.389,49.305-4.389,75.16
	c0,20.146,0.914,39.942,2.681,59.07C130.448,310.868,109.369,305.232,90.912,298.275z M306.681,421.089
	c-14.363,38.101-33.115,60.848-50.164,60.848s-35.802-22.747-50.164-60.848c-7.787-20.656-13.924-44.591-18.24-70.67
	c21.835,2.344,44.627,3.561,67.886,3.561c23.634,0,46.785-1.257,68.939-3.676C320.623,376.427,314.479,400.401,306.681,421.089z
	 M421.089,298.275c-18.174,6.851-38.89,12.422-61.367,16.603c1.755-19.068,2.663-38.798,2.663-58.878
	c0-25.786-1.495-50.999-4.365-74.967c23.134,4.214,44.438,9.891,63.07,16.914c38.101,14.362,60.848,33.115,60.848,50.164
	S459.189,283.913,421.089,298.275z"/>
<path style="fill:#00E7F0;" d="M438.569,319.587c-10.96-24.22-26.49-49.865-45.577-75.555
	c16.381-22.947,29.834-45.741,39.633-67.397c22.816-50.422,23.321-90.253,1.423-112.15c-21.899-21.899-61.729-21.392-112.15,1.423
	c-22.339,10.108-45.891,24.11-69.57,41.2c-21.196-14.739-42.198-26.925-62.225-35.987C139.679,48.304,99.852,47.8,77.955,69.698
	c-21.899,21.898-21.394,61.727,1.422,112.149c9.041,19.982,21.194,40.933,35.887,62.079c-17.377,23.976-31.599,47.833-41.831,70.447
	c-22.816,50.422-23.321,90.252-1.422,112.149c10.713,10.713,25.715,16.065,44.155,16.065c19.248,0,42.241-5.834,67.995-17.487
	c21.93-9.922,45.028-23.597,68.269-40.262c25.643,19.04,51.238,34.534,75.415,45.474c25.756,11.654,48.747,17.487,67.996,17.487
	c18.436,0,33.442-5.352,44.155-16.064C461.889,409.84,461.385,370.01,438.569,319.587z M334.291,93.299
	c37.097-16.786,66.442-19.611,78.498-7.555c12.054,12.055,9.23,41.401-7.555,78.498c-8.007,17.695-18.715,36.282-31.653,55.132
	c-12.242-14.724-25.552-29.318-39.749-43.515c-18.233-18.233-37.119-35.004-56.097-49.922
	C297.072,112.557,316.151,101.507,334.291,93.299z M355.23,244.377c-14.417,18.448-30.756,36.883-48.602,54.729
	c-17.578,17.578-35.729,33.69-53.899,47.948c-15.978-12.935-31.89-27.269-47.358-42.736c-19.556-19.556-37.304-39.822-52.694-60.035
	c13.961-17.662,29.663-35.291,46.75-52.379c17.356-17.356,35.271-33.281,53.211-47.406c20.179,15.373,40.41,33.094,59.934,52.618
	C328.009,212.553,342.316,228.432,355.23,244.377z M106.766,169.454c-16.785-37.098-19.609-66.442-7.554-78.497
	c4.948-4.948,12.8-7.388,22.911-7.388c14.527,0,33.71,5.045,55.585,14.942c15.93,7.207,32.582,16.602,49.498,27.843
	c-16.596,13.467-33.067,28.32-49.038,44.291c-15.708,15.708-30.329,31.899-43.619,48.217
	C123.336,201.977,113.962,185.355,106.766,169.454z M171.765,397.71c-37.1,16.785-66.443,19.608-78.497,7.554
	c-12.055-12.055-9.231-41.4,7.554-78.497c8.334-18.418,19.593-37.801,33.247-57.442c14.949,19.03,31.761,37.968,50.044,56.251
	c14.246,14.246,28.89,27.597,43.664,39.874C208.626,378.66,189.735,389.58,171.765,397.71z M418.734,410.479
	c-12.056,12.054-41.401,9.229-78.498-7.555c-20.112-9.101-41.376-21.685-62.869-37.074c17.097-13.783,34.074-29.039,50.521-45.486
	c16.712-16.712,32.193-33.971,46.149-51.347c15.42,21.526,28.029,42.823,37.143,62.964
	C427.963,369.078,430.788,398.423,418.734,410.479z"/>
<path style="fill:#00CC71;" d="M302.159,245.501c0,26.136-21.256,47.402-47.392,47.402s-47.402-21.266-47.402-47.402
	s21.266-47.392,47.402-47.392C280.903,198.11,302.159,219.365,302.159,245.501z"/>
<path style="fill:#00AB94;" d="M302.159,245.501c0,26.136-21.256,47.402-47.392,47.402V198.11
	C280.903,198.11,302.159,219.365,302.159,245.501z"/>
<g>
</g>
<g>
</g>
<g>
</g>
<g>
</g>
<g>
</g>
<g>
</g>
<g>
</g>
<g>
</g>
<g>
</g>
<g>
</g>
<g>
</g>
<g>
</g>
<g>
</g>
<g>
</g>
<g>
</g>
</svg>
