<svg xmlns="http://www.w3.org/2000/svg"  role="img" width="1em" height="1em" preserveAspectRatio="xMidYMid meet" viewBox="0 0 24 24"><rect x="0" y="0" width="24" height="24" fill="none" stroke="none" /><g fill="none"><path d="M12 11l-1-7.272c0-.466.185-.913.515-1.243c1.024-1.024 2.777-.44 2.982.994L16 10l1.508-6.328a1.682 1.682 0 0 1 3.276.73L19 16" stroke="#ff7d15" stroke-width="2" stroke-linecap="round" stroke-linejoin="round"/><path d="M19 16c-.536 4-3.358 6-7.5 6C7.358 22 4 20 4 16" stroke="#ff7d15" stroke-width="2"/><path d="M4 16v-4a2 2 0 1 1 4 0m4 1v-2a2 2 0 1 0-4 0v4" stroke="#ff7d15" stroke-width="2" stroke-linecap="round" stroke-linejoin="round"/><path d="M13.692 17H11a2 2 0 1 1 0-4h4c2.21 0 4.5 2 3.5 5" stroke="#ff7d15" stroke-width="2" stroke-linecap="round" stroke-linejoin="round"/></g></svg>